<?xml version="1.0" encoding="utf-8"?>
<!-- Generator: Adobe Illustrator 16.0.0, SVG Export Plug-In . SVG Version: 6.00 Build 0)  -->
<!DOCTYPE svg PUBLIC "-//W3C//DTD SVG 1.1//EN" "http://www.w3.org/Graphics/SVG/1.1/DTD/svg11.dtd">
<svg version="1.1" id="Layer_1" xmlns="http://www.w3.org/2000/svg" xmlns:xlink="http://www.w3.org/1999/xlink" x="0px" y="0px"
	 width="1280px" height="800px" viewBox="0 0 1280 800" enable-background="new 0 0 1280 800" xml:space="preserve">
<g>
	<g>
		<path fill="#4775B9" d="M640.914,753.343c-139.161,0-252.395-84.385-252.395-188.107h49.985
			c0,76.163,90.807,138.122,202.409,138.122c111.616,0,202.41-61.959,202.41-138.122h49.984
			C893.309,668.958,780.09,753.343,640.914,753.343z"/>
	</g>
	<g>
		<path fill="#4775B9" d="M893.309,236.765h-49.984c0-76.163-90.794-138.122-202.41-138.122
			c-111.602,0-202.409,61.959-202.409,138.122H388.52c0-103.722,113.234-188.107,252.395-188.107
			C780.09,48.658,893.309,133.042,893.309,236.765z"/>
	</g>
	<g>
		<polygon fill="#63BA8F" points="681.987,515.459 421.985,327.161 451.308,286.684 711.304,474.979 		"/>
	</g>
	<g>
		<polygon fill="#63BA8F" points="832.543,515.174 572.526,326.882 601.85,286.391 861.852,474.687 		"/>
	</g>
</g>
</svg>
